<mxfile host="Electron" agent="Mozilla/5.0 (X11; Linux x86_64) AppleWebKit/537.36 (KHTML, like Gecko) draw.io/25.0.1 Chrome/128.0.6613.186 Electron/32.2.6 Safari/537.36" version="25.0.1">
  <diagram name="Page-1" id="XTCA5G6cbBC70T64MSRc">
    <mxGraphModel dx="590" dy="376" grid="1" gridSize="10" guides="1" tooltips="1" connect="1" arrows="1" fold="1" page="1" pageScale="1" pageWidth="850" pageHeight="1100" math="0" shadow="0">
      <root>
        <mxCell id="0" />
        <mxCell id="1" parent="0" />
        <mxCell id="usQ819zLOBG4mIStdMB8-11" value="" style="rounded=1;whiteSpace=wrap;html=1;" vertex="1" parent="1">
          <mxGeometry x="544" y="280.79" width="158" height="200" as="geometry" />
        </mxCell>
        <mxCell id="0JstrHkOvT4zA7hhjL8A-45" value="" style="rounded=1;whiteSpace=wrap;html=1;" parent="1" vertex="1">
          <mxGeometry x="120" y="590" width="220" height="140" as="geometry" />
        </mxCell>
        <mxCell id="0JstrHkOvT4zA7hhjL8A-34" value="" style="rounded=1;whiteSpace=wrap;html=1;" parent="1" vertex="1">
          <mxGeometry x="120" y="270" width="158" height="200" as="geometry" />
        </mxCell>
        <mxCell id="0JstrHkOvT4zA7hhjL8A-3" value="VCE710-01" style="rounded=0;whiteSpace=wrap;html=1;" parent="1" vertex="1">
          <mxGeometry x="149" y="377.4" width="100" height="20" as="geometry" />
        </mxCell>
        <mxCell id="0JstrHkOvT4zA7hhjL8A-6" value="Cloud FW" style="rounded=0;whiteSpace=wrap;html=1;" parent="1" vertex="1">
          <mxGeometry x="310" y="500" width="230" height="30" as="geometry" />
        </mxCell>
        <mxCell id="0JstrHkOvT4zA7hhjL8A-20" value="" style="image;points=[];aspect=fixed;html=1;align=center;shadow=0;dashed=0;image=img/lib/allied_telesis/computer_and_terminals/Laptop.svg;" parent="1" vertex="1">
          <mxGeometry x="150" y="407.4" width="42" height="42.599999999999994" as="geometry" />
        </mxCell>
        <mxCell id="0JstrHkOvT4zA7hhjL8A-37" value="Site 1" style="rounded=0;whiteSpace=wrap;html=1;" parent="1" vertex="1">
          <mxGeometry x="139" y="270" width="120" height="30" as="geometry" />
        </mxCell>
        <mxCell id="0JstrHkOvT4zA7hhjL8A-42" value="" style="shape=link;html=1;rounded=0;exitX=1;exitY=0.5;exitDx=0;exitDy=0;entryX=0;entryY=0.25;entryDx=0;entryDy=0;" parent="1" source="0JstrHkOvT4zA7hhjL8A-3" target="0JstrHkOvT4zA7hhjL8A-5" edge="1">
          <mxGeometry width="100" relative="1" as="geometry">
            <mxPoint x="410" y="270" as="sourcePoint" />
            <mxPoint x="510" y="270" as="targetPoint" />
          </mxGeometry>
        </mxCell>
        <mxCell id="0JstrHkOvT4zA7hhjL8A-43" value="" style="shape=link;html=1;rounded=0;exitX=0;exitY=0.75;exitDx=0;exitDy=0;entryX=1;entryY=0.5;entryDx=0;entryDy=0;" parent="1" source="usQ819zLOBG4mIStdMB8-12" target="0JstrHkOvT4zA7hhjL8A-5" edge="1">
          <mxGeometry width="100" relative="1" as="geometry">
            <mxPoint x="540" y="270" as="sourcePoint" />
            <mxPoint x="510" y="270" as="targetPoint" />
          </mxGeometry>
        </mxCell>
        <mxCell id="0JstrHkOvT4zA7hhjL8A-44" value="DC&lt;br&gt;802.1X Auth" style="rounded=0;whiteSpace=wrap;html=1;" parent="1" vertex="1">
          <mxGeometry x="220.00000000000003" y="670" width="80" height="30" as="geometry" />
        </mxCell>
        <mxCell id="0JstrHkOvT4zA7hhjL8A-46" value="RapidScale Cloud" style="rounded=0;whiteSpace=wrap;html=1;" parent="1" vertex="1">
          <mxGeometry x="170.00000000000003" y="590" width="120" height="30" as="geometry" />
        </mxCell>
        <mxCell id="0JstrHkOvT4zA7hhjL8A-47" value="" style="endArrow=none;html=1;rounded=0;exitX=1;exitY=0.5;exitDx=0;exitDy=0;entryX=0.109;entryY=0.95;entryDx=0;entryDy=0;entryPerimeter=0;" parent="1" source="0JstrHkOvT4zA7hhjL8A-44" target="0JstrHkOvT4zA7hhjL8A-6" edge="1">
          <mxGeometry width="50" height="50" relative="1" as="geometry">
            <mxPoint x="320" y="390" as="sourcePoint" />
            <mxPoint x="370" y="340" as="targetPoint" />
          </mxGeometry>
        </mxCell>
        <mxCell id="0JstrHkOvT4zA7hhjL8A-48" value="10.100.0.11" style="edgeLabel;html=1;align=center;verticalAlign=middle;resizable=0;points=[];" parent="0JstrHkOvT4zA7hhjL8A-47" vertex="1" connectable="0">
          <mxGeometry x="0.1846" y="-2" relative="1" as="geometry">
            <mxPoint x="6" y="-33" as="offset" />
          </mxGeometry>
        </mxCell>
        <mxCell id="usQ819zLOBG4mIStdMB8-1" value="" style="rounded=1;whiteSpace=wrap;html=1;" vertex="1" parent="1">
          <mxGeometry x="200" y="30" width="158" height="200" as="geometry" />
        </mxCell>
        <mxCell id="usQ819zLOBG4mIStdMB8-2" value="VCE710-02" style="rounded=0;whiteSpace=wrap;html=1;" vertex="1" parent="1">
          <mxGeometry x="229" y="137.4" width="100" height="20" as="geometry" />
        </mxCell>
        <mxCell id="usQ819zLOBG4mIStdMB8-3" value="" style="image;points=[];aspect=fixed;html=1;align=center;shadow=0;dashed=0;image=img/lib/allied_telesis/computer_and_terminals/Laptop.svg;" vertex="1" parent="1">
          <mxGeometry x="230" y="167.4" width="42" height="42.599999999999994" as="geometry" />
        </mxCell>
        <mxCell id="usQ819zLOBG4mIStdMB8-4" value="Site 2" style="rounded=0;whiteSpace=wrap;html=1;" vertex="1" parent="1">
          <mxGeometry x="219" y="30" width="120" height="30" as="geometry" />
        </mxCell>
        <mxCell id="usQ819zLOBG4mIStdMB8-5" value="" style="shape=link;html=1;rounded=0;exitX=0.75;exitY=1;exitDx=0;exitDy=0;entryX=0.25;entryY=0;entryDx=0;entryDy=0;" edge="1" parent="1" source="usQ819zLOBG4mIStdMB8-2" target="0JstrHkOvT4zA7hhjL8A-5">
          <mxGeometry width="100" relative="1" as="geometry">
            <mxPoint x="350" y="177.4" as="sourcePoint" />
            <mxPoint x="330" y="287" as="targetPoint" />
          </mxGeometry>
        </mxCell>
        <mxCell id="usQ819zLOBG4mIStdMB8-6" value="" style="rounded=1;whiteSpace=wrap;html=1;" vertex="1" parent="1">
          <mxGeometry x="561" y="9.999999999999993" width="158" height="200" as="geometry" />
        </mxCell>
        <mxCell id="usQ819zLOBG4mIStdMB8-7" value="VCE710-03" style="rounded=0;whiteSpace=wrap;html=1;" vertex="1" parent="1">
          <mxGeometry x="590" y="117.4" width="100" height="20" as="geometry" />
        </mxCell>
        <mxCell id="usQ819zLOBG4mIStdMB8-8" value="" style="image;points=[];aspect=fixed;html=1;align=center;shadow=0;dashed=0;image=img/lib/allied_telesis/computer_and_terminals/Laptop.svg;" vertex="1" parent="1">
          <mxGeometry x="660" y="157.4" width="42" height="42.599999999999994" as="geometry" />
        </mxCell>
        <mxCell id="usQ819zLOBG4mIStdMB8-9" value="Site 3" style="rounded=0;whiteSpace=wrap;html=1;" vertex="1" parent="1">
          <mxGeometry x="580" y="9.999999999999993" width="120" height="30" as="geometry" />
        </mxCell>
        <mxCell id="usQ819zLOBG4mIStdMB8-10" value="" style="shape=link;html=1;rounded=0;exitX=0.25;exitY=1;exitDx=0;exitDy=0;entryX=0.75;entryY=0;entryDx=0;entryDy=0;" edge="1" parent="1" source="usQ819zLOBG4mIStdMB8-7" target="0JstrHkOvT4zA7hhjL8A-5">
          <mxGeometry width="100" relative="1" as="geometry">
            <mxPoint x="550" y="150" as="sourcePoint" />
            <mxPoint x="530" y="260" as="targetPoint" />
          </mxGeometry>
        </mxCell>
        <mxCell id="usQ819zLOBG4mIStdMB8-12" value="VCE640&lt;div&gt;(Shrey-640)&lt;/div&gt;" style="rounded=0;whiteSpace=wrap;html=1;" vertex="1" parent="1">
          <mxGeometry x="573" y="388.19" width="100" height="31.81" as="geometry" />
        </mxCell>
        <mxCell id="usQ819zLOBG4mIStdMB8-13" value="" style="image;points=[];aspect=fixed;html=1;align=center;shadow=0;dashed=0;image=img/lib/allied_telesis/computer_and_terminals/Laptop.svg;" vertex="1" parent="1">
          <mxGeometry x="602" y="425.59000000000003" width="42" height="42.599999999999994" as="geometry" />
        </mxCell>
        <mxCell id="usQ819zLOBG4mIStdMB8-14" value="Site 4" style="rounded=0;whiteSpace=wrap;html=1;" vertex="1" parent="1">
          <mxGeometry x="563" y="280.79" width="120" height="30" as="geometry" />
        </mxCell>
        <mxCell id="usQ819zLOBG4mIStdMB8-21" value="Internet" style="image;aspect=fixed;perimeter=ellipsePerimeter;html=1;align=center;shadow=0;dashed=0;spacingTop=3;image=img/lib/active_directory/internet_cloud.svg;" vertex="1" parent="1">
          <mxGeometry x="487.89000000000004" y="610" width="111.11" height="70" as="geometry" />
        </mxCell>
        <mxCell id="usQ819zLOBG4mIStdMB8-28" value="" style="endArrow=none;dashed=1;html=1;dashPattern=1 3;strokeWidth=2;rounded=0;entryX=0.38;entryY=0.93;entryDx=0;entryDy=0;exitX=0.25;exitY=0;exitDx=0;exitDy=0;entryPerimeter=0;" edge="1" parent="1" source="usQ819zLOBG4mIStdMB8-12" target="usQ819zLOBG4mIStdMB8-7">
          <mxGeometry width="50" height="50" relative="1" as="geometry">
            <mxPoint x="510" y="400" as="sourcePoint" />
            <mxPoint x="560" y="350" as="targetPoint" />
          </mxGeometry>
        </mxCell>
        <mxCell id="usQ819zLOBG4mIStdMB8-53" value="10.10.10.0/24&lt;div&gt;192.168.41.0/24&lt;/div&gt;" style="edgeLabel;html=1;align=center;verticalAlign=middle;resizable=0;points=[];" vertex="1" connectable="0" parent="usQ819zLOBG4mIStdMB8-28">
          <mxGeometry x="0.1184" relative="1" as="geometry">
            <mxPoint as="offset" />
          </mxGeometry>
        </mxCell>
        <mxCell id="usQ819zLOBG4mIStdMB8-34" value="" style="endArrow=none;dashed=1;html=1;dashPattern=1 3;strokeWidth=2;rounded=0;entryX=1;entryY=1;entryDx=0;entryDy=0;exitX=0;exitY=0;exitDx=0;exitDy=0;" edge="1" parent="1" source="usQ819zLOBG4mIStdMB8-12" target="usQ819zLOBG4mIStdMB8-2">
          <mxGeometry width="50" height="50" relative="1" as="geometry">
            <mxPoint x="634" y="377" as="sourcePoint" />
            <mxPoint x="577" y="156" as="targetPoint" />
          </mxGeometry>
        </mxCell>
        <mxCell id="usQ819zLOBG4mIStdMB8-52" value="192.168.222.0/24&lt;div&gt;10.10.10.0/24&lt;/div&gt;" style="edgeLabel;html=1;align=center;verticalAlign=middle;resizable=0;points=[];" vertex="1" connectable="0" parent="usQ819zLOBG4mIStdMB8-34">
          <mxGeometry x="-0.0211" y="3" relative="1" as="geometry">
            <mxPoint as="offset" />
          </mxGeometry>
        </mxCell>
        <mxCell id="usQ819zLOBG4mIStdMB8-35" value="" style="endArrow=none;dashed=1;html=1;dashPattern=1 3;strokeWidth=2;rounded=0;entryX=1;entryY=0.25;entryDx=0;entryDy=0;exitX=0;exitY=0.5;exitDx=0;exitDy=0;" edge="1" parent="1" source="usQ819zLOBG4mIStdMB8-12" target="0JstrHkOvT4zA7hhjL8A-3">
          <mxGeometry width="50" height="50" relative="1" as="geometry">
            <mxPoint x="644" y="387" as="sourcePoint" />
            <mxPoint x="587" y="166" as="targetPoint" />
          </mxGeometry>
        </mxCell>
        <mxCell id="usQ819zLOBG4mIStdMB8-54" value="10.10.10.0/24&lt;div&gt;192.168.49.0/24&lt;/div&gt;" style="edgeLabel;html=1;align=center;verticalAlign=middle;resizable=0;points=[];" vertex="1" connectable="0" parent="usQ819zLOBG4mIStdMB8-35">
          <mxGeometry x="0.3998" y="-2" relative="1" as="geometry">
            <mxPoint x="-14" y="-1" as="offset" />
          </mxGeometry>
        </mxCell>
        <mxCell id="0JstrHkOvT4zA7hhjL8A-5" value="Velo Cloud GW" style="rounded=0;whiteSpace=wrap;html=1;" parent="1" vertex="1">
          <mxGeometry x="380" y="431.89" width="70" height="30" as="geometry" />
        </mxCell>
        <mxCell id="usQ819zLOBG4mIStdMB8-38" value="" style="endArrow=none;dashed=1;html=1;dashPattern=1 3;strokeWidth=2;rounded=0;entryX=0;entryY=0.75;entryDx=0;entryDy=0;exitX=1;exitY=0.5;exitDx=0;exitDy=0;" edge="1" parent="1" source="usQ819zLOBG4mIStdMB8-2" target="usQ819zLOBG4mIStdMB8-7">
          <mxGeometry width="50" height="50" relative="1" as="geometry">
            <mxPoint x="634" y="377" as="sourcePoint" />
            <mxPoint x="577" y="156" as="targetPoint" />
          </mxGeometry>
        </mxCell>
        <mxCell id="usQ819zLOBG4mIStdMB8-43" value="Text" style="edgeLabel;html=1;align=center;verticalAlign=middle;resizable=0;points=[];" vertex="1" connectable="0" parent="usQ819zLOBG4mIStdMB8-38">
          <mxGeometry x="0.2361" y="1" relative="1" as="geometry">
            <mxPoint x="-20" y="4" as="offset" />
          </mxGeometry>
        </mxCell>
        <mxCell id="usQ819zLOBG4mIStdMB8-48" value="192.168.222.0/24&lt;div&gt;192.168.41.0/24&lt;/div&gt;" style="edgeLabel;html=1;align=center;verticalAlign=middle;resizable=0;points=[];" vertex="1" connectable="0" parent="usQ819zLOBG4mIStdMB8-38">
          <mxGeometry x="0.0557" y="-4" relative="1" as="geometry">
            <mxPoint as="offset" />
          </mxGeometry>
        </mxCell>
        <mxCell id="usQ819zLOBG4mIStdMB8-39" value="" style="endArrow=none;dashed=1;html=1;dashPattern=1 3;strokeWidth=2;rounded=0;exitX=0.84;exitY=-0.17;exitDx=0;exitDy=0;exitPerimeter=0;entryX=0.08;entryY=1.03;entryDx=0;entryDy=0;entryPerimeter=0;" edge="1" parent="1" source="0JstrHkOvT4zA7hhjL8A-3" target="usQ819zLOBG4mIStdMB8-7">
          <mxGeometry width="50" height="50" relative="1" as="geometry">
            <mxPoint x="644" y="387" as="sourcePoint" />
            <mxPoint x="530" y="150" as="targetPoint" />
          </mxGeometry>
        </mxCell>
        <mxCell id="usQ819zLOBG4mIStdMB8-51" value="192.168.41.0/24&lt;div&gt;192.168.49.0/24&lt;/div&gt;" style="edgeLabel;html=1;align=center;verticalAlign=middle;resizable=0;points=[];" vertex="1" connectable="0" parent="usQ819zLOBG4mIStdMB8-39">
          <mxGeometry x="0.4997" y="2" relative="1" as="geometry">
            <mxPoint as="offset" />
          </mxGeometry>
        </mxCell>
        <mxCell id="usQ819zLOBG4mIStdMB8-40" value="" style="endArrow=none;dashed=1;html=1;dashPattern=1 3;strokeWidth=2;rounded=0;entryX=0.61;entryY=0.08;entryDx=0;entryDy=0;exitX=0.62;exitY=0.93;exitDx=0;exitDy=0;exitPerimeter=0;entryPerimeter=0;" edge="1" parent="1" source="usQ819zLOBG4mIStdMB8-2" target="0JstrHkOvT4zA7hhjL8A-3">
          <mxGeometry width="50" height="50" relative="1" as="geometry">
            <mxPoint x="339" y="157" as="sourcePoint" />
            <mxPoint x="539" y="152" as="targetPoint" />
          </mxGeometry>
        </mxCell>
        <mxCell id="usQ819zLOBG4mIStdMB8-49" value="192.168.222.0/24&lt;div&gt;192.168.49.0/24&lt;/div&gt;" style="edgeLabel;html=1;align=center;verticalAlign=middle;resizable=0;points=[];" vertex="1" connectable="0" parent="usQ819zLOBG4mIStdMB8-40">
          <mxGeometry x="-0.1337" y="-3" relative="1" as="geometry">
            <mxPoint as="offset" />
          </mxGeometry>
        </mxCell>
        <mxCell id="usQ819zLOBG4mIStdMB8-41" value="" style="endArrow=none;html=1;rounded=0;entryX=0.75;entryY=1;entryDx=0;entryDy=0;" edge="1" parent="1" source="usQ819zLOBG4mIStdMB8-21" target="0JstrHkOvT4zA7hhjL8A-6">
          <mxGeometry width="50" height="50" relative="1" as="geometry">
            <mxPoint x="310" y="695" as="sourcePoint" />
            <mxPoint x="345" y="539" as="targetPoint" />
          </mxGeometry>
        </mxCell>
        <mxCell id="usQ819zLOBG4mIStdMB8-44" value="192.168.49.1/24" style="whiteSpace=wrap;html=1;" vertex="1" parent="1">
          <mxGeometry x="129" y="320" width="91" height="20" as="geometry" />
        </mxCell>
        <mxCell id="usQ819zLOBG4mIStdMB8-45" value="192.168.222.1/24" style="whiteSpace=wrap;html=1;" vertex="1" parent="1">
          <mxGeometry x="219" y="90" width="101" height="20" as="geometry" />
        </mxCell>
        <mxCell id="usQ819zLOBG4mIStdMB8-46" value="192.168.41.1/24" style="whiteSpace=wrap;html=1;" vertex="1" parent="1">
          <mxGeometry x="599" y="70" width="91" height="20" as="geometry" />
        </mxCell>
        <mxCell id="usQ819zLOBG4mIStdMB8-47" value="10.10.10.1/24" style="whiteSpace=wrap;html=1;" vertex="1" parent="1">
          <mxGeometry x="602" y="330.79" width="91" height="20" as="geometry" />
        </mxCell>
        <mxCell id="usQ819zLOBG4mIStdMB8-55" value="" style="endArrow=classic;startArrow=classic;html=1;rounded=0;exitX=0.465;exitY=0.133;exitDx=0;exitDy=0;exitPerimeter=0;entryX=0.5;entryY=1;entryDx=0;entryDy=0;" edge="1" parent="1" source="0JstrHkOvT4zA7hhjL8A-6" target="0JstrHkOvT4zA7hhjL8A-5">
          <mxGeometry width="50" height="50" relative="1" as="geometry">
            <mxPoint x="360" y="280" as="sourcePoint" />
            <mxPoint x="410" y="460" as="targetPoint" />
          </mxGeometry>
        </mxCell>
      </root>
    </mxGraphModel>
  </diagram>
</mxfile>
